# xmcd
#
# Track frame offsets:
#	150
#	11283
#	21755
#	33356
#	45475
#	56146
#	66472
#	79225
#	89785
#	100632
#	111653
#	124139
#	134940
#	144972
#	157571
#	171915
#	184604
#	194211
#	205529
#	218491
#	227473
#	237193
#	248523
#	260588
#
# Disc length: 3631 seconds
# Revision: 0
# Processed by: cddbd v1.5.2PL0 Copyright (c) Steve Scherf et al.
# Submitted via: dBpowerAMP V12.0
#
DISCID=4e0e2d18
DTITLE=Jean Shepard - The First Lady Of Country Disc 2
DYEAR=2012
DGENRE=Country
TTITLE0=A Satisfied Mind
TTITLE1=Two Whoops And A Holler
TTITLE2=I'd Rather Die Young
TTITLE3=Why Did You Wait?
TTITLE4=The Other Woman
TTITLE5=Act Like A Married Man
TTITLE6=Beautiful Lies
TTITLE7=You're Calling Me Sweetheart Again
TTITLE8=Under Suspicion
TTITLE9=Crying Steel Guitar
TTITLE10=My Wedding Ring
TTITLE11=I Learned It All From You
TTITLE12=Big Midnight Special
TTITLE13=Blues Stay Away From Me
TTITLE14=Waltz Of The Angles
TTITLE15=Another
TTITLE16=One White Rose
TTITLE17=I Don't Apologize For Loving You
TTITLE18=Under Your Spell Again
TTITLE19=You're The Only Good Thing
TTITLE20=Got You On My Mind
TTITLE21=If You Haven't, You Can't Feel The Way I Do
TTITLE22=Mockin' Bird Hill
TTITLE23=Color Song
EXTD=
EXTT0=
EXTT1=
EXTT2=
EXTT3=
EXTT4=
EXTT5=
EXTT6=
EXTT7=
EXTT8=
EXTT9=
EXTT10=
EXTT11=
EXTT12=
EXTT13=
EXTT14=
EXTT15=
EXTT16=
EXTT17=
EXTT18=
EXTT19=
EXTT20=
EXTT21=
EXTT22=
EXTT23=
PLAYORDER=
